<mxfile host="Electron" agent="Mozilla/5.0 (Windows NT 10.0; Win64; x64) AppleWebKit/537.36 (KHTML, like Gecko) draw.io/28.1.2 Chrome/138.0.7204.243 Electron/37.4.0 Safari/537.36" version="28.1.2">
  <diagram name="Pagina" id="MkcUhMdge6JJXitcd0B0">
    <mxGraphModel dx="1507" dy="736" grid="1" gridSize="10" guides="1" tooltips="1" connect="1" arrows="1" fold="1" page="1" pageScale="1" pageWidth="827" pageHeight="1169" math="0" shadow="0">
      <root>
        <mxCell id="0" />
        <mxCell id="1" parent="0" />
        <mxCell id="uiOqZg-fI69MZ44saVDm-1" value="" style="rounded=0;whiteSpace=wrap;html=1;" vertex="1" parent="1">
          <mxGeometry x="190" y="30" width="370" height="580" as="geometry" />
        </mxCell>
        <mxCell id="uiOqZg-fI69MZ44saVDm-2" value="URL" style="rounded=0;whiteSpace=wrap;html=1;" vertex="1" parent="1">
          <mxGeometry x="190" y="30" width="370" height="30" as="geometry" />
        </mxCell>
        <mxCell id="uiOqZg-fI69MZ44saVDm-3" value="Banner de Vaulcore" style="rounded=0;whiteSpace=wrap;html=1;" vertex="1" parent="1">
          <mxGeometry x="190" y="60" width="370" height="90" as="geometry" />
        </mxCell>
        <mxCell id="uiOqZg-fI69MZ44saVDm-4" value="&lt;div&gt;&lt;br&gt;&lt;/div&gt;&lt;div&gt;Caracteristicas del producto&lt;/div&gt;" style="rounded=0;whiteSpace=wrap;html=1;" vertex="1" parent="1">
          <mxGeometry x="190" y="270" width="370" height="70" as="geometry" />
        </mxCell>
        <mxCell id="uiOqZg-fI69MZ44saVDm-5" value="Video Promocional" style="rounded=0;whiteSpace=wrap;html=1;" vertex="1" parent="1">
          <mxGeometry x="390" y="165" width="170" height="90" as="geometry" />
        </mxCell>
        <mxCell id="uiOqZg-fI69MZ44saVDm-6" value="Nosotros" style="rounded=0;whiteSpace=wrap;html=1;" vertex="1" parent="1">
          <mxGeometry x="190" y="340" width="370" height="30" as="geometry" />
        </mxCell>
        <mxCell id="uiOqZg-fI69MZ44saVDm-7" value="Vision" style="rounded=0;whiteSpace=wrap;html=1;" vertex="1" parent="1">
          <mxGeometry x="190" y="370" width="180" height="60" as="geometry" />
        </mxCell>
        <mxCell id="uiOqZg-fI69MZ44saVDm-8" value="Mision" style="rounded=0;whiteSpace=wrap;html=1;" vertex="1" parent="1">
          <mxGeometry x="370" y="370" width="190" height="60" as="geometry" />
        </mxCell>
        <mxCell id="uiOqZg-fI69MZ44saVDm-9" value="Valores" style="rounded=0;whiteSpace=wrap;html=1;" vertex="1" parent="1">
          <mxGeometry x="190" y="430" width="370" height="40" as="geometry" />
        </mxCell>
        <mxCell id="uiOqZg-fI69MZ44saVDm-10" value="Problematica" style="rounded=0;whiteSpace=wrap;html=1;" vertex="1" parent="1">
          <mxGeometry x="190" y="150" width="200" height="120" as="geometry" />
        </mxCell>
        <mxCell id="uiOqZg-fI69MZ44saVDm-12" value="Nuestro desafio ODS" style="rounded=0;whiteSpace=wrap;html=1;" vertex="1" parent="1">
          <mxGeometry x="190" y="470" width="370" height="60" as="geometry" />
        </mxCell>
        <mxCell id="uiOqZg-fI69MZ44saVDm-13" value="Conctactos" style="rounded=0;whiteSpace=wrap;html=1;" vertex="1" parent="1">
          <mxGeometry x="190" y="530" width="370" height="30" as="geometry" />
        </mxCell>
        <mxCell id="uiOqZg-fI69MZ44saVDm-14" value="Footer con logos de feria" style="rounded=0;whiteSpace=wrap;html=1;" vertex="1" parent="1">
          <mxGeometry x="190" y="560" width="370" height="50" as="geometry" />
        </mxCell>
        <mxCell id="uiOqZg-fI69MZ44saVDm-15" value="Navegador" style="rounded=0;whiteSpace=wrap;html=1;" vertex="1" parent="1">
          <mxGeometry x="190" y="60" width="370" height="20" as="geometry" />
        </mxCell>
      </root>
    </mxGraphModel>
  </diagram>
</mxfile>
